<svg xmlns="http://www.w3.org/2000/svg" width="18.812" height="17.745" viewBox="0 0 18.812 17.745">
  <path id="Path_33" data-name="Path 33" d="M2.822,2.662A8.786,8.786,0,0,1,9.406,0,8.786,8.786,0,0,1,15.99,2.662a7.849,7.849,0,0,1,2.822,6.211,7.849,7.849,0,0,1-2.822,6.211,8.786,8.786,0,0,1-6.584,2.662,8.786,8.786,0,0,1-6.584-2.662A8.621,8.621,0,0,1,0,8.873,7.849,7.849,0,0,1,2.822,2.662Zm10.817,10.2,1.1-1.035-3.919-3.7L9.406,2.218H7.838V8.873a1.308,1.308,0,0,0,.47,1.035.558.558,0,0,0,.314.148Z" fill="#fffaf1"/>
</svg>
